<svg width="20" height="20" viewBox="0 0 20 20" fill="none" xmlns="http://www.w3.org/2000/svg">
<path d="M0.718896 0.718744C1.07051 0.367235 1.54734 0.169769 2.04452 0.169769C2.5417 0.169769 3.01853 0.367235 3.37015 0.718744L10.0001 7.34874L16.6301 0.718744C16.9838 0.377197 17.4574 0.188208 17.949 0.19248C18.4406 0.196752 18.9109 0.393944 19.2586 0.741584C19.6062 1.08922 19.8034 1.5595 19.8077 2.05112C19.8119 2.54274 19.6229 3.01637 19.2814 3.36999L12.6514 9.99999L19.2814 16.63C19.6229 16.9836 19.8119 17.4573 19.8077 17.9489C19.8034 18.4405 19.6062 18.9108 19.2586 19.2584C18.9109 19.606 18.4406 19.8032 17.949 19.8075C17.4574 19.8118 16.9838 19.6228 16.6301 19.2812L10.0001 12.6512L3.37015 19.2812C3.01652 19.6228 2.54289 19.8118 2.05127 19.8075C1.55965 19.8032 1.08938 19.606 0.741737 19.2584C0.394096 18.9108 0.196905 18.4405 0.192633 17.9489C0.188361 17.4573 0.37735 16.9836 0.718896 16.63L7.3489 9.99999L0.718896 3.36999C0.367388 3.01838 0.169922 2.54155 0.169922 2.04437C0.169922 1.54719 0.367388 1.07036 0.718896 0.718744V0.718744Z" fill="white"/>
</svg>
